<?xml version="1.0" standalone="no"?>
<!DOCTYPE svg PUBLIC "-//W3C//DTD SVG 20010904//EN"
 "http://www.w3.org/TR/2001/REC-SVG-20010904/DTD/svg10.dtd">
<svg version="1.0" xmlns="http://www.w3.org/2000/svg"
 width="300.000000pt" height="300.000000pt" viewBox="0 0 300.000000 300.000000"
 preserveAspectRatio="xMidYMid meet">
<metadata>
Created by potrace 1.10, written by Peter Selinger 2001-2011
</metadata>
<g transform="translate(0.000000,300.000000) scale(0.100000,-0.100000)"
fill="#000000" stroke="none">
<path d="M1513 2380 c-87 -53 -31 -164 82 -162 49 0 82 15 107 46 27 32 22 64
-16 102 -30 30 -40 34 -87 34 -36 0 -65 -7 -86 -20z m152 -35 c69 -68 -54
-137 -142 -80 -27 18 -29 48 -6 79 14 18 28 23 70 25 45 1 57 -2 78 -24z"/>
<path d="M1435 2198 c55 -121 91 -299 98 -486 l4 -94 56 -1 57 -2 0 57 c0 159
41 380 95 509 14 35 29 71 32 79 3 8 -7 3 -23 -12 -16 -14 -58 -43 -94 -64
l-64 -37 -63 33 c-35 19 -75 47 -90 62 -15 15 -30 28 -34 28 -4 0 7 -33 26
-72z m106 -60 c9 -13 87 -12 103 1 17 14 46 4 46 -16 0 -8 -5 -24 -12 -36 -6
-12 -12 -31 -13 -42 -1 -11 -2 -33 -3 -48 -1 -18 -6 -26 -14 -21 -7 4 -8 3 -4
-4 4 -7 2 -38 -5 -69 -10 -52 -15 -94 -22 -202 -1 -19 -7 -36 -12 -38 -23 -7
-33 17 -39 92 -10 111 -33 242 -55 310 -11 32 -17 63 -15 70 6 14 36 16 45 3z"/>
<path d="M1120 2178 c-52 -15 -87 -44 -100 -84 -25 -73 10 -145 97 -200 32
-21 75 -49 96 -63 38 -24 67 -66 67 -95 0 -20 -28 -46 -50 -46 -34 0 -50 28
-50 86 l0 54 -69 0 c-38 0 -76 3 -85 6 -14 5 -16 -4 -16 -60 0 -128 53 -169
215 -170 141 0 204 36 220 127 16 85 -31 147 -184 239 -89 54 -108 118 -37
126 41 5 56 -14 56 -69 l0 -49 86 0 86 0 -4 66 c-4 59 -8 70 -36 95 -17 15
-48 33 -69 38 -47 13 -176 13 -223 -1z m65 -59 c-41 -36 -45 -66 -15 -113 17
-28 49 -52 145 -111 65 -40 109 -119 90 -162 -5 -10 -8 -21 -7 -25 4 -19 -67
-56 -118 -61 -36 -4 -48 -3 -34 2 33 14 64 60 64 94 0 46 -36 90 -123 149 -93
62 -124 96 -133 144 -12 63 46 112 134 113 l33 1 -36 -31z m175 11 c31 -16 40
-27 46 -54 8 -46 0 -56 -46 -56 -38 0 -50 11 -50 49 0 10 -9 30 -20 44 -11 14
-20 28 -20 31 0 13 53 5 90 -14z m-235 -339 c20 -8 21 -11 24 -55 0 -14 13
-38 27 -55 l26 -31 -31 0 c-76 0 -123 43 -119 108 3 40 27 51 73 33z"/>
<path d="M1871 2179 c-96 -29 -114 -64 -119 -236 -6 -173 2 -235 35 -273 38
-46 86 -62 184 -63 113 0 168 24 199 88 20 41 21 57 18 219 -3 194 -8 209 -78
251 -39 22 -183 31 -239 14z m69 -36 c0 -4 -11 -18 -25 -33 -24 -25 -24 -29
-26 -201 -1 -183 3 -209 43 -237 30 -22 20 -30 -27 -21 -56 10 -91 35 -105 73
-5 16 -10 95 -10 175 0 168 11 204 70 233 35 18 80 24 80 11z m134 -7 c18 -7
42 -26 54 -40 19 -25 21 -40 21 -193 0 -182 -7 -211 -57 -237 -46 -24 -134
-25 -90 0 45 24 51 49 56 206 5 178 0 213 -40 250 l-30 28 26 0 c15 0 41 -6
60 -14z m-66 -48 c8 -8 12 -65 12 -189 0 -188 -5 -209 -50 -209 -42 0 -50 34
-50 208 0 93 4 172 10 183 12 22 59 26 78 7z"/>
<path d="M260 2174 c0 -3 22 -114 49 -247 27 -133 51 -258 55 -277 l6 -35 111
2 c61 1 112 3 114 5 2 2 28 120 59 263 31 143 59 268 62 278 5 15 -3 17 -75
17 -79 0 -79 0 -85 -27 -3 -16 -20 -113 -37 -218 -17 -104 -32 -192 -34 -194
-6 -5 -13 55 -25 209 -6 80 -14 164 -17 188 l-6 42 -88 0 c-49 0 -89 -3 -89
-6z m137 -46 c9 -16 10 -21 28 -178 2 -19 7 -60 10 -90 12 -106 34 -143 69
-117 17 13 51 159 71 306 10 73 21 91 53 91 46 0 46 16 -3 -210 -41 -190 -58
-261 -65 -265 -5 -3 -36 -7 -70 -10 -49 -3 -64 -1 -78 13 -12 12 -31 85 -60
229 -23 116 -42 218 -42 227 0 12 10 16 39 16 22 0 43 -6 48 -12z"/>
<path d="M770 1898 l0 -283 85 0 85 0 0 283 0 282 -85 0 -85 0 0 -282z m125
232 c5 -9 9 -320 6 -441 -1 -22 -7 -28 -33 -33 -57 -11 -59 -3 -60 242 0 121
3 225 6 231 9 14 73 14 81 1z"/>
<path d="M2242 1899 l3 -281 65 0 65 0 -2 236 c-1 136 3 236 8 236 5 0 9 -7 9
-16 0 -12 93 -372 115 -444 4 -12 24 -14 115 -12 l110 3 0 280 0 279 -71 0
c-69 0 -71 -1 -65 -22 3 -13 6 -108 6 -212 0 -149 3 -187 12 -178 7 7 13 25
14 40 1 15 3 27 4 27 0 0 1 64 2 142 1 147 7 170 42 157 14 -5 16 -33 16 -234
0 -132 -4 -231 -9 -235 -17 -10 -91 -17 -115 -11 -25 6 -39 37 -71 156 -44
163 -80 266 -98 282 -19 17 -21 17 -38 -4 -20 -22 -22 -52 -19 -310 1 -96 -1
-108 -18 -117 -39 -21 -43 3 -40 246 l3 228 76 3 c85 3 88 1 108 -68 8 -25 20
-65 27 -90 8 -25 23 -77 34 -115 19 -68 43 -115 53 -105 5 5 -52 240 -89 368
l-15 52 -120 0 -119 0 2 -281z"/>
<path d="M503 1520 c-36 -15 -29 -48 12 -66 46 -19 45 -36 -2 -32 -21 1 -38
-2 -38 -7 0 -6 18 -11 41 -13 70 -5 87 47 24 70 -37 12 -34 34 4 30 28 -3 36
12 10 22 -19 7 -23 7 -51 -4z"/>
<path d="M650 1523 c-49 -18 -66 -75 -32 -106 23 -21 102 -23 102 -4 0 9 -11
12 -34 9 -42 -5 -64 24 -45 59 8 17 18 20 45 17 39 -5 48 16 12 26 -26 7 -27
6 -48 -1z"/>
<path d="M848 1523 l-38 -4 0 -60 0 -59 50 0 c28 0 50 5 50 10 0 6 -13 10 -30
10 -20 0 -30 5 -30 15 0 9 9 15 25 15 34 0 32 18 -2 22 -39 4 -35 22 5 26 19
2 32 8 29 15 -4 13 -12 15 -59 10z"/>
<path d="M1045 1521 c-3 -6 -3 -26 1 -46 8 -45 0 -44 -32 5 -19 28 -34 40 -50
40 -23 0 -24 -4 -24 -60 0 -47 3 -60 15 -60 11 0 15 12 15 48 l0 47 31 -47
c21 -33 38 -48 53 -48 19 0 21 5 21 62 0 58 -14 84 -30 59z"/>
<path d="M1140 1517 c-76 -39 -24 -142 61 -120 33 9 21 28 -18 28 -37 0 -38 1
-38 35 0 34 1 35 38 35 41 0 51 19 15 29 -30 8 -29 8 -58 -7z"/>
<path d="M1288 1523 l-38 -4 0 -60 0 -59 50 0 c28 0 50 5 50 10 0 6 -16 10
-35 10 -24 0 -35 5 -35 15 0 9 9 15 24 15 14 0 28 5 31 10 4 6 -7 10 -24 10
-43 0 -42 28 2 32 17 2 31 7 30 13 -2 12 -8 13 -55 8z"/>
<path d="M1622 1520 c-78 -32 -29 -145 54 -124 38 10 29 29 -13 29 -37 0 -38
1 -38 35 0 34 1 35 38 35 38 0 51 18 21 29 -20 8 -34 7 -62 -4z"/>
<path d="M2088 1522 l-38 -3 0 -60 0 -59 51 0 c31 0 48 4 44 10 -3 6 -19 10
-36 10 -19 0 -29 5 -29 15 0 9 9 15 25 15 14 0 25 5 25 10 0 6 -11 10 -25 10
-16 0 -25 6 -25 15 0 10 10 15 30 15 17 0 30 4 30 9 0 14 -11 17 -52 13z"/>
<path d="M2386 1523 c-3 -3 6 -22 19 -42 14 -19 25 -46 25 -58 0 -14 6 -23 15
-23 9 0 15 9 15 23 0 12 11 39 25 59 14 20 21 39 17 42 -11 6 -25 -4 -45 -33
l-16 -24 -12 26 c-12 26 -32 40 -43 30z"/>
<path d="M740 1460 c0 -53 2 -60 20 -60 18 0 20 7 20 60 0 53 -2 60 -20 60
-18 0 -20 -7 -20 -60z"/>
<path d="M1445 1464 c-14 -31 -25 -58 -25 -60 0 -11 32 -2 36 11 8 20 61 19
72 -1 5 -9 16 -14 24 -13 13 3 11 13 -10 62 -20 46 -29 57 -48 57 -20 0 -29
-11 -49 -56z m60 5 c8 -24 1 -34 -19 -26 -9 4 -12 14 -9 26 7 27 20 27 28 0z"/>
<path d="M1738 1463 c-21 -49 -23 -59 -10 -62 8 -1 19 4 24 13 12 21 68 22 68
1 0 -8 9 -15 20 -15 25 0 25 -4 -6 64 -20 44 -30 56 -48 56 -19 0 -28 -11 -48
-57z m67 -14 c-4 -6 -20 -6 -43 0 -1 1 3 11 9 23 11 21 12 21 25 3 7 -10 11
-21 9 -26z"/>
<path d="M1880 1460 l0 -60 50 0 c37 0 55 5 70 20 46 46 9 100 -70 100 l-50 0
0 -60z m95 0 c0 -31 -3 -35 -27 -38 -27 -3 -28 -1 -28 38 0 39 1 41 28 38 24
-3 27 -7 27 -38z"/>
<path d="M2170 1460 c0 -52 2 -60 19 -60 16 0 18 6 13 45 -6 57 9 58 29 3 22
-61 49 -62 72 -3 11 25 22 45 26 45 3 0 5 -20 3 -45 -3 -36 -1 -45 12 -45 13
0 16 12 16 60 0 58 -1 60 -26 60 -20 0 -29 -8 -42 -40 -9 -22 -20 -40 -23 -40
-3 0 -14 18 -24 40 -15 33 -23 40 -47 40 -28 0 -28 -1 -28 -60z"/>
<path d="M870 1303 c0 -6 21 -13 48 -16 40 -4 53 -12 87 -49 43 -48 146 -238
332 -611 117 -235 118 -238 148 -235 28 3 38 19 220 378 104 206 205 396 222
422 39 55 88 88 143 95 89 12 29 18 -162 16 -112 -2 -220 -3 -240 -3 -38 0
-38 0 -38 -43 0 -33 10 -59 49 -122 27 -44 48 -82 46 -85 -1 -3 -42 -69 -89
-148 -63 -105 -86 -152 -86 -177 0 -40 -20 -55 -73 -55 -41 0 -72 29 -64 60 4
15 -21 65 -84 170 -49 81 -89 151 -89 155 0 4 20 41 45 82 36 58 45 83 45 118
l0 45 -177 0 c-98 0 -202 3 -230 6 -33 4 -53 3 -53 -3z m419 -51 c8 -14 5 -29
-11 -58 -11 -21 -23 -41 -27 -44 -3 -3 -16 -26 -29 -51 l-22 -47 36 -63 c20
-35 40 -69 45 -75 30 -37 84 -146 98 -201 14 -50 48 -73 109 -73 50 0 86 32
96 85 4 21 35 84 68 139 98 162 101 170 99 200 -1 15 -15 48 -32 72 -42 61
-55 100 -38 120 17 21 249 19 249 -2 0 -8 -5 -14 -12 -14 -6 0 -9 -3 -5 -6 3
-4 1 -12 -6 -20 -26 -29 -33 -40 -46 -72 -8 -19 -19 -39 -25 -45 -6 -7 -30
-50 -53 -97 -24 -47 -69 -135 -100 -196 -32 -61 -65 -126 -74 -145 -52 -113
-112 -219 -124 -219 -8 0 -23 16 -32 36 -80 161 -258 510 -262 514 -13 12 -51
89 -51 104 0 9 -5 16 -11 16 -5 0 -19 19 -30 43 -11 23 -28 56 -39 72 -10 17
-19 33 -19 38 -1 4 53 7 119 7 106 0 120 -2 129 -18z"/>
<path d="M210 1182 c1 -4 27 -38 60 -76 l58 -70 -45 -58 c-25 -32 -52 -63 -59
-69 -8 -6 -14 -14 -14 -18 0 -3 216 -7 480 -8 264 -2 480 -1 480 1 0 5 -134
257 -152 286 -13 20 -23 20 -410 20 -219 -1 -398 -4 -398 -8z m136 -45 c-3
-12 -6 -33 -6 -47 0 -24 -1 -24 -35 13 -19 21 -35 42 -35 46 0 4 19 8 41 9 38
2 41 0 35 -21z m87 -2 c9 -8 18 -33 22 -55 10 -62 24 -57 22 7 -2 56 -1 58 26
61 l27 3 0 -110 0 -111 -34 0 c-34 0 -35 1 -47 55 -7 30 -15 55 -18 55 -3 0
-4 -25 -3 -55 l4 -55 -31 0 -31 0 0 110 c0 110 0 110 24 110 14 0 31 -7 39
-15z m257 -18 c0 -26 -2 -28 -35 -21 -31 5 -35 4 -35 -14 0 -18 5 -20 35 -15
33 5 35 4 35 -21 0 -23 -4 -26 -35 -26 -28 0 -35 -4 -35 -20 0 -17 7 -20 40
-20 36 0 40 -2 40 -25 0 -26 -1 -26 -71 -23 l-71 3 1 103 c0 56 0 103 1 105 0
1 29 2 65 2 65 0 65 0 65 -28z m160 -1 c0 -20 -5 -23 -37 -22 -28 1 -38 -3
-38 -14 0 -10 11 -15 35 -15 29 0 36 -4 38 -22 3 -21 -1 -23 -37 -23 -34 0
-41 -3 -41 -20 0 -17 7 -20 40 -20 36 0 40 -2 40 -25 0 -24 -2 -25 -70 -25
l-70 0 0 103 c0 57 2 106 4 108 2 2 34 2 70 1 61 -3 66 -5 66 -26z m160 -1 c0
-20 -5 -25 -25 -25 -25 0 -25 -1 -25 -80 l0 -80 -30 0 -30 0 0 84 c0 79 -1 84
-20 79 -16 -4 -20 0 -20 21 0 26 1 26 75 26 73 0 75 -1 75 -25z m70 -114 c18
-39 30 -74 27 -78 -4 -4 -33 -7 -65 -8 l-57 0 3 65 c4 71 25 118 45 101 7 -5
28 -41 47 -80z m-737 -28 c3 -16 9 -36 12 -45 6 -16 1 -18 -39 -18 -25 0 -46
3 -46 7 0 11 52 83 60 83 4 0 10 -12 13 -27z"/>
<path d="M1937 1148 c-45 -80 -137 -256 -137 -263 0 -4 216 -5 480 -3 264 1
480 6 480 10 0 3 -21 32 -47 65 -25 32 -50 63 -55 69 -5 8 9 33 39 70 27 33
55 67 62 77 13 16 -7 17 -392 17 l-406 0 -24 -42z m166 -45 c-6 -78 -8 -80
-38 -80 -42 0 -64 -28 -58 -72 l5 -38 -70 2 c-38 1 -75 6 -81 9 -13 8 87 209
114 228 6 4 38 8 72 8 l62 0 -6 -57z m592 47 c4 -6 -10 -31 -30 -56 -42 -51
-42 -72 3 -119 15 -16 31 -38 35 -48 6 -16 1 -18 -46 -15 -44 3 -52 6 -53 23
0 11 -6 30 -13 43 -10 18 -10 26 0 38 9 11 9 21 1 39 -8 17 -8 26 -1 31 7 4 9
21 6 40 l-6 34 49 0 c27 0 52 -5 55 -10z m-495 -99 c0 -97 -8 -115 -56 -127
-29 -8 -82 2 -101 17 -7 6 -13 22 -13 35 0 20 5 24 29 24 21 0 30 -6 34 -21 3
-12 12 -19 19 -17 9 3 14 31 16 91 l3 87 34 0 35 0 0 -89z m190 64 c0 -23 -4
-25 -45 -25 -33 0 -45 -4 -45 -15 0 -11 11 -15 40 -15 36 0 40 -2 40 -25 0
-22 -4 -25 -40 -25 -34 0 -40 -3 -40 -21 0 -19 5 -21 45 -17 42 3 45 2 45 -22
0 -25 -1 -25 -82 -23 l-83 2 0 105 -1 106 83 0 c82 0 83 0 83 -25z m190 1 c0
-22 -5 -25 -47 -28 -63 -4 -71 -28 -9 -28 42 0 46 -2 46 -25 0 -23 -4 -25 -44
-25 -40 0 -44 -2 -39 -21 5 -19 11 -21 49 -15 43 5 44 5 44 -23 l0 -29 -82 4
-83 3 -3 106 -3 105 86 0 c84 0 85 0 85 -24z"/>
<path d="M1445 1074 c-29 -29 25 -66 65 -44 25 14 26 36 1 50 -28 14 -47 13
-66 -6z"/>
</g>
</svg>
